<svg width="390" height="120" viewBox="0 0 390 120" fill="none" xmlns="http://www.w3.org/2000/svg">
<rect x="0.5" y="0.5" width="388.999" height="119" rx="4.5" stroke="#9747FF" stroke-dasharray="10 5"/>
<g clip-path="url(#clip0_879_6873)">
<rect x="20" y="20" width="55" height="34" rx="17" fill="#BDE0FF"/>
<text fill="#212121" xml:space="preserve" style="white-space: pre" font-family="Spoqa Han Sans Neo" font-size="12" letter-spacing="0em"><tspan x="36.4609" y="41.128">&#xc804;&#xccb4;</tspan></text>
<rect x="83" y="20" width="99" height="34" rx="17" fill="#EEEEEE"/>
<text fill="#212121" xml:space="preserve" style="white-space: pre" font-family="Spoqa Han Sans Neo" font-size="12" letter-spacing="0em"><tspan x="99.3828" y="41.128">&#xc18c;&#xc15c;&#xb124;&#xd2b8;&#xc6cc;&#xd06c;</tspan></text>
<rect x="190" y="20" width="77" height="34" rx="17" fill="#EEEEEE"/>
<text fill="#212121" xml:space="preserve" style="white-space: pre" font-family="Spoqa Han Sans Neo" font-size="12" letter-spacing="0em"><tspan x="206.422" y="41.128">&#xbe44;&#xc988;&#xb2c8;&#xc2a4;</tspan></text>
<rect x="275" y="20" width="104" height="34" rx="17" fill="#EEEEEE"/>
<text fill="#212121" xml:space="preserve" style="white-space: pre" font-family="Spoqa Han Sans Neo" font-size="12" letter-spacing="0em"><tspan x="291.199" y="41.128">&#xac24;&#xb7ec;&#xb9ac; &#xbc0f; &#xd30c;&#xc77c;</tspan></text>
<rect x="316" y="20" width="30" height="30" fill="url(#paint0_linear_879_6873)"/>
</g>
<rect x="353.953" y="26.9766" width="16.0459" height="16.0459" rx="8.02296" fill="#328BFF"/>
<path d="M360.572 38.9878L364.584 34.9763L360.572 30.9648" stroke="white" stroke-width="1.5" stroke-linecap="round" stroke-linejoin="round"/>
<g clip-path="url(#clip1_879_6873)">
<rect x="-26" y="68" width="77" height="34" rx="17" fill="#EEEEEE"/>
<rect x="59" y="68" width="104" height="34" rx="17" fill="#EEEEEE"/>
<text fill="#212121" xml:space="preserve" style="white-space: pre" font-family="Spoqa Han Sans Neo" font-size="12" letter-spacing="0em"><tspan x="75.1992" y="89.128">&#xac24;&#xb7ec;&#xb9ac; &#xbc0f; &#xd30c;&#xc77c;</tspan></text>
<rect x="171" y="68" width="79" height="34" rx="17" fill="#EEEEEE"/>
<text fill="#212121" xml:space="preserve" style="white-space: pre" font-family="Spoqa Han Sans Neo" font-size="12" letter-spacing="0em"><tspan x="187.08" y="89.128">&#xc7ac;&#xc0b0; &#xcc98;&#xb9ac;</tspan></text>
<rect x="258" y="68" width="112" height="34" rx="17" fill="#EEEEEE"/>
<text fill="#212121" xml:space="preserve" style="white-space: pre" font-family="Spoqa Han Sans Neo" font-size="12" letter-spacing="0em"><tspan x="274.021" y="89.128">&#xcd94;&#xbaa8; &#xac00;&#xc774;&#xb4dc;&#xb77c;&#xc778;</tspan></text>
</g>
<rect x="44" y="70" width="30" height="30" fill="url(#paint1_linear_879_6873)"/>
<rect width="16.0459" height="16.0459" rx="8.02296" transform="matrix(-1 0 0 1 35.999 76.9766)" fill="#328BFF"/>
<path d="M29.3799 88.9878L25.3684 84.9763L29.3799 80.9648" stroke="white" stroke-width="1.5" stroke-linecap="round" stroke-linejoin="round"/>
<defs>
<linearGradient id="paint0_linear_879_6873" x1="346" y1="35" x2="316" y2="35" gradientUnits="userSpaceOnUse">
<stop stop-color="#FAFAFA"/>
<stop offset="1" stop-color="#FAFAFA" stop-opacity="0"/>
</linearGradient>
<linearGradient id="paint1_linear_879_6873" x1="74" y1="85" x2="44" y2="85" gradientUnits="userSpaceOnUse">
<stop stop-color="#FAFAFA" stop-opacity="0"/>
<stop offset="1" stop-color="#FAFAFA"/>
</linearGradient>
<clipPath id="clip0_879_6873">
<rect width="326" height="30" fill="white" transform="translate(20 20)"/>
</clipPath>
<clipPath id="clip1_879_6873">
<rect width="326" height="34" fill="white" transform="translate(44 68)"/>
</clipPath>
</defs>
</svg>
